<?xml version="1.0" encoding="UTF-8"?>
<svg width="233px" height="72px" viewBox="0 0 233 72" version="1.1" xmlns="http://www.w3.org/2000/svg" xmlns:xlink="http://www.w3.org/1999/xlink">
    <!-- Generator: Sketch 56.3 (81716) - https://sketch.com -->
    <title>ISCN_logo</title>
    <desc>Created with Sketch.</desc>
    <g id="ISCN_logo" stroke="none" stroke-width="1" fill="none" fill-rule="evenodd">
        <g id="ISCN-green-2014" fill="#669940" fill-rule="nonzero">
            <g id="Group" transform="translate(88.000000, 17.000000)">
                <g transform="translate(0.000000, 35.521739)">
                    <polygon id="Path" points="1.12258065 0.467391304 1.12258065 5.60869565 0.467741935 5.60869565 0.467741935 0.467391304"></polygon>
                    <path d="M2.52580645,2.89782609 C2.52580645,2.52391304 2.52580645,2.24347826 2.52580645,1.86956522 L3.08709677,1.86956522 L3.08709677,2.52391304 L3.08709677,2.52391304 C3.27419355,2.15 3.74193548,1.86956522 4.30322581,1.86956522 C4.77096774,1.86956522 5.61290323,2.15 5.61290323,3.45869565 L5.61290323,5.60869565 L4.95806452,5.60869565 L4.95806452,3.45869565 C4.95806452,2.89782609 4.77096774,2.33695652 4.11612903,2.33695652 C3.6483871,2.33695652 3.36774194,2.6173913 3.18064516,2.99130435 C3.18064516,3.08478261 3.18064516,3.17826087 3.18064516,3.27173913 L3.18064516,5.60869565 L2.52580645,5.60869565 L2.52580645,2.89782609 L2.52580645,2.89782609 Z" id="Path"></path>
                    <path d="M7.76451613,1.02826087 L7.76451613,1.96304348 L8.7,1.96304348 L8.7,2.52391304 L7.76451613,2.52391304 L7.76451613,4.48695652 C7.76451613,4.95434783 7.85806452,5.23478261 8.23225806,5.23478261 C8.41935484,5.23478261 8.51290323,5.23478261 8.60645161,5.23478261 L8.60645161,5.70217391 C8.51290323,5.79565217 8.23225806,5.79565217 8.04516129,5.79565217 C7.76451613,5.79565217 7.48387097,5.70217391 7.29677419,5.51521739 C7.10967742,5.32826087 7.01612903,4.95434783 7.01612903,4.58043478 L7.01612903,2.52391304 L6.5483871,2.52391304 L6.5483871,1.86956522 L7.10967742,1.86956522 L7.10967742,1.21521739 L7.76451613,1.02826087 Z" id="Path"></path>
                    <path d="M10.0096774,3.8326087 C10.0096774,4.7673913 10.5709677,5.14130435 11.3193548,5.14130435 C11.7870968,5.14130435 12.0677419,5.04782609 12.3483871,4.95434783 L12.4419355,5.42173913 C12.1612903,5.51521739 11.7870968,5.70217391 11.2258065,5.70217391 C10.1032258,5.70217391 9.35483871,4.95434783 9.35483871,3.8326087 C9.35483871,2.71086957 10.0096774,1.86956522 11.1322581,1.86956522 C12.3483871,1.86956522 12.6290323,2.89782609 12.6290323,3.64565217 C12.6290323,3.73913043 12.6290323,3.92608696 12.6290323,3.92608696 L10.0096774,3.92608696 L10.0096774,3.8326087 Z M11.9741935,3.36521739 C11.9741935,2.89782609 11.7870968,2.24347826 11.0387097,2.24347826 C10.383871,2.24347826 10.0096774,2.89782609 10.0096774,3.36521739 L11.9741935,3.36521739 Z" id="Shape"></path>
                    <path d="M13.6580645,3.08478261 C13.6580645,2.6173913 13.6580645,2.24347826 13.6580645,1.96304348 L14.2193548,1.96304348 L14.2193548,2.71086957 L14.2193548,2.71086957 C14.4064516,2.24347826 14.7806452,1.86956522 15.2483871,1.86956522 C15.3419355,1.86956522 15.3419355,1.86956522 15.4354839,1.86956522 L15.4354839,2.52391304 C15.3419355,2.52391304 15.3419355,2.52391304 15.2483871,2.52391304 C14.7806452,2.52391304 14.4064516,2.89782609 14.3129032,3.36521739 C14.3129032,3.45869565 14.3129032,3.55217391 14.3129032,3.64565217 L14.3129032,5.60869565 L13.6580645,5.60869565 L13.6580645,3.08478261 L13.6580645,3.08478261 Z" id="Path"></path>
                    <path d="M16.3709677,2.89782609 C16.3709677,2.52391304 16.3709677,2.24347826 16.3709677,1.86956522 L16.9322581,1.86956522 L16.9322581,2.52391304 L16.9322581,2.52391304 C17.1193548,2.15 17.5870968,1.86956522 18.1483871,1.86956522 C18.7096774,1.86956522 19.4580645,2.15 19.4580645,3.45869565 L19.4580645,5.60869565 L18.8032258,5.60869565 L18.8032258,3.45869565 C18.8032258,2.89782609 18.616129,2.33695652 17.9612903,2.33695652 C17.4935484,2.33695652 17.2129032,2.6173913 17.0258065,2.99130435 C17.0258065,3.08478261 16.9322581,3.17826087 16.9322581,3.27173913 L16.9322581,5.60869565 L16.2774194,5.60869565 L16.2774194,2.89782609 L16.3709677,2.89782609 Z" id="Path"></path>
                    <path d="M23.4806452,4.67391304 C23.4806452,4.95434783 23.4806452,5.32826087 23.5741935,5.60869565 L22.9193548,5.60869565 L22.8258065,5.14130435 L22.8258065,5.14130435 C22.6387097,5.42173913 22.2645161,5.70217391 21.7032258,5.70217391 C20.9548387,5.70217391 20.5806452,5.14130435 20.5806452,4.67391304 C20.5806452,3.73913043 21.4225806,3.27173913 22.8258065,3.27173913 L22.8258065,3.17826087 C22.8258065,2.89782609 22.7322581,2.33695652 21.983871,2.33695652 C21.6096774,2.33695652 21.2354839,2.43043478 21.0483871,2.6173913 L20.8612903,2.15 C21.1419355,1.96304348 21.6096774,1.77608696 22.0774194,1.77608696 C23.2,1.77608696 23.4806452,2.52391304 23.4806452,3.27173913 L23.4806452,4.67391304 L23.4806452,4.67391304 Z M22.8258065,3.73913043 C22.0774194,3.73913043 21.2354839,3.8326087 21.2354839,4.58043478 C21.2354839,5.04782609 21.516129,5.23478261 21.8903226,5.23478261 C22.3580645,5.23478261 22.6387097,4.95434783 22.8258065,4.58043478 C22.8258065,4.48695652 22.8258065,4.39347826 22.8258065,4.39347826 L22.8258065,3.73913043 Z" id="Shape"></path>
                    <path d="M25.5387097,1.02826087 L25.5387097,1.96304348 L26.4741935,1.96304348 L26.4741935,2.52391304 L25.5387097,2.52391304 L25.5387097,4.48695652 C25.5387097,4.95434783 25.6322581,5.23478261 26.0064516,5.23478261 C26.1935484,5.23478261 26.2870968,5.23478261 26.3806452,5.23478261 L26.3806452,5.70217391 C26.2870968,5.79565217 26.0064516,5.79565217 25.8193548,5.79565217 C25.5387097,5.79565217 25.2580645,5.70217391 25.0709677,5.51521739 C24.883871,5.32826087 24.7903226,4.95434783 24.7903226,4.58043478 L24.7903226,2.52391304 L24.3225806,2.52391304 L24.3225806,1.86956522 L24.883871,1.86956522 L24.883871,1.21521739 L25.5387097,1.02826087 Z" id="Path"></path>
                    <path d="M28.3096774,0.841304348 C28.3096774,1.02826087 28.1096774,1.21521739 27.8096774,1.21521739 C27.5096774,1.21521739 27.4096774,1.02826087 27.4096774,0.841304348 C27.4096774,0.560869565 27.6096774,0.373913043 27.9096774,0.373913043 C28.1096774,0.373913043 28.3096774,0.560869565 28.3096774,0.841304348 Z M27.5096774,5.60869565 L27.5096774,1.86956522 L28.2096774,1.86956522 L28.2096774,5.60869565 L27.5096774,5.60869565 Z" id="Shape"></path>
                    <path d="M32.8354839,3.73913043 C32.8354839,5.14130435 31.9,5.70217391 30.9645161,5.70217391 C29.9354839,5.70217391 29.1870968,4.95434783 29.1870968,3.8326087 C29.1870968,2.6173913 30.0290323,1.86956522 31.0580645,1.86956522 C32.0870968,1.77608696 32.8354839,2.6173913 32.8354839,3.73913043 Z M29.8419355,3.73913043 C29.8419355,4.58043478 30.3096774,5.14130435 30.9645161,5.14130435 C31.6193548,5.14130435 32.0870968,4.58043478 32.0870968,3.73913043 C32.0870968,3.08478261 31.8064516,2.33695652 30.9645161,2.33695652 C30.1225806,2.33695652 29.8419355,3.08478261 29.8419355,3.73913043 Z" id="Shape"></path>
                    <path d="M33.8645161,2.89782609 C33.8645161,2.52391304 33.8645161,2.24347826 33.8645161,1.86956522 L34.4258065,1.86956522 L34.4258065,2.52391304 L34.4258065,2.52391304 C34.6129032,2.15 35.0806452,1.86956522 35.6419355,1.86956522 C36.2032258,1.86956522 36.9516129,2.15 36.9516129,3.45869565 L36.9516129,5.60869565 L36.2967742,5.60869565 L36.2967742,3.45869565 C36.2967742,2.89782609 36.1096774,2.33695652 35.4548387,2.33695652 C34.9870968,2.33695652 34.7064516,2.6173913 34.5193548,2.99130435 C34.5193548,3.08478261 34.5193548,3.17826087 34.5193548,3.27173913 L34.5193548,5.60869565 L33.8645161,5.60869565 L33.8645161,2.89782609 L33.8645161,2.89782609 Z" id="Path"></path>
                    <path d="M40.9741935,4.67391304 C40.9741935,4.95434783 40.9741935,5.32826087 41.0677419,5.60869565 L40.4129032,5.60869565 L40.3193548,5.14130435 L40.3193548,5.14130435 C40.1322581,5.42173913 39.7580645,5.70217391 39.1967742,5.70217391 C38.4483871,5.70217391 38.0741935,5.14130435 38.0741935,4.67391304 C38.0741935,3.73913043 38.916129,3.27173913 40.3193548,3.27173913 L40.3193548,3.17826087 C40.3193548,2.89782609 40.2258065,2.33695652 39.4774194,2.33695652 C39.1032258,2.33695652 38.7290323,2.43043478 38.5419355,2.6173913 L38.3548387,2.15 C38.6354839,1.96304348 39.1032258,1.77608696 39.5709677,1.77608696 C40.6935484,1.77608696 40.9741935,2.52391304 40.9741935,3.27173913 L40.9741935,4.67391304 L40.9741935,4.67391304 Z M40.3193548,3.73913043 C39.5709677,3.73913043 38.7290323,3.8326087 38.7290323,4.58043478 C38.7290323,5.04782609 39.0096774,5.23478261 39.383871,5.23478261 C39.8516129,5.23478261 40.1322581,4.95434783 40.3193548,4.58043478 C40.3193548,4.48695652 40.3193548,4.39347826 40.3193548,4.39347826 L40.3193548,3.73913043 Z" id="Shape"></path>
                    <polygon id="Path" points="42.283871 0.186956522 42.9387097 0.186956522 42.9387097 5.60869565 42.283871 5.60869565"></polygon>
                    <path d="M46.0258065,4.7673913 C46.3064516,4.95434783 46.7741935,5.14130435 47.2419355,5.14130435 C47.8967742,5.14130435 48.3645161,4.7673913 48.3645161,4.3 C48.3645161,3.8326087 48.083871,3.55217391 47.4290323,3.27173913 C46.5870968,2.99130435 46.0258065,2.52391304 46.0258065,1.77608696 C46.0258065,0.934782609 46.6806452,0.373913043 47.7096774,0.373913043 C48.2709677,0.373913043 48.6451613,0.467391304 48.8322581,0.654347826 L48.6451613,1.21521739 C48.4580645,1.12173913 48.083871,0.934782609 47.616129,0.934782609 C46.8677419,0.934782609 46.6806452,1.40217391 46.6806452,1.6826087 C46.6806452,2.15 46.9612903,2.43043478 47.7096774,2.71086957 C48.5516129,3.08478261 49.0193548,3.45869565 49.0193548,4.20652174 C49.0193548,5.04782609 48.4580645,5.70217391 47.2419355,5.70217391 C46.7741935,5.70217391 46.2129032,5.51521739 45.9322581,5.32826087 L46.0258065,4.7673913 Z" id="Path"></path>
                    <path d="M53.1354839,4.58043478 C53.1354839,4.95434783 53.1354839,5.32826087 53.1354839,5.60869565 L52.5741935,5.60869565 L52.5741935,5.04782609 L52.5741935,5.04782609 C52.3870968,5.32826087 52.0129032,5.70217391 51.3580645,5.70217391 C50.7967742,5.70217391 50.0483871,5.42173913 50.0483871,4.11304348 L50.0483871,1.86956522 L50.7032258,1.86956522 L50.7032258,3.92608696 C50.7032258,4.67391304 50.8903226,5.14130435 51.5451613,5.14130435 C52.0129032,5.14130435 52.2935484,4.86086957 52.4806452,4.48695652 C52.4806452,4.39347826 52.5741935,4.3 52.5741935,4.11304348 L52.5741935,1.86956522 L53.2290323,1.86956522 L53.2290323,4.58043478 L53.1354839,4.58043478 Z" id="Path"></path>
                    <path d="M54.3516129,4.95434783 C54.5387097,5.04782609 54.9129032,5.23478261 55.2870968,5.23478261 C55.7548387,5.23478261 56.0354839,4.95434783 56.0354839,4.67391304 C56.0354839,4.39347826 55.8483871,4.20652174 55.3806452,4.01956522 C54.7258065,3.73913043 54.3516129,3.45869565 54.3516129,2.99130435 C54.3516129,2.43043478 54.8193548,1.86956522 55.6612903,1.86956522 C56.0354839,1.86956522 56.4096774,1.96304348 56.5967742,2.05652174 L56.4096774,2.52391304 C56.2225806,2.43043478 56.0354839,2.33695652 55.6612903,2.33695652 C55.2870968,2.33695652 55.0064516,2.52391304 55.0064516,2.80434783 C55.0064516,3.08478261 55.1935484,3.27173913 55.7548387,3.45869565 C56.4096774,3.73913043 56.6903226,4.01956522 56.6903226,4.58043478 C56.6903226,5.23478261 56.2225806,5.70217391 55.2870968,5.70217391 C54.9129032,5.70217391 54.5387097,5.60869565 54.2580645,5.42173913 L54.3516129,4.95434783 Z" id="Path"></path>
                    <path d="M58.5612903,1.02826087 L58.5612903,1.96304348 L59.4967742,1.96304348 L59.4967742,2.52391304 L58.5612903,2.52391304 L58.5612903,4.48695652 C58.5612903,4.95434783 58.6548387,5.23478261 59.0290323,5.23478261 C59.216129,5.23478261 59.3096774,5.23478261 59.4032258,5.23478261 L59.4032258,5.70217391 C59.3096774,5.79565217 59.0290323,5.79565217 58.8419355,5.79565217 C58.5612903,5.79565217 58.2806452,5.70217391 58.0935484,5.51521739 C57.9064516,5.32826087 57.8129032,4.95434783 57.8129032,4.58043478 L57.8129032,2.52391304 L57.2516129,2.52391304 L57.2516129,1.86956522 L57.8129032,1.86956522 L57.8129032,1.21521739 L58.5612903,1.02826087 Z" id="Path"></path>
                    <path d="M63.0516129,4.67391304 C63.0516129,4.95434783 63.0516129,5.32826087 63.1451613,5.60869565 L62.4903226,5.60869565 L62.3967742,5.14130435 L62.3967742,5.14130435 C62.2096774,5.42173913 61.7419355,5.70217391 61.2741935,5.70217391 C60.5258065,5.70217391 60.1516129,5.14130435 60.1516129,4.67391304 C60.1516129,3.73913043 60.9935484,3.27173913 62.3967742,3.27173913 L62.3967742,3.17826087 C62.3967742,2.89782609 62.3032258,2.33695652 61.5548387,2.33695652 C61.1806452,2.33695652 60.8064516,2.43043478 60.6193548,2.6173913 L60.4322581,2.15 C60.7129032,1.96304348 61.1806452,1.77608696 61.6483871,1.77608696 C62.7709677,1.77608696 63.0516129,2.52391304 63.0516129,3.27173913 L63.0516129,4.67391304 L63.0516129,4.67391304 Z M62.3967742,3.73913043 C61.6483871,3.73913043 60.8064516,3.8326087 60.8064516,4.58043478 C60.8064516,5.04782609 61.0870968,5.23478261 61.4612903,5.23478261 C61.9290323,5.23478261 62.2096774,4.95434783 62.3967742,4.58043478 C62.3967742,4.48695652 62.3967742,4.39347826 62.3967742,4.39347826 L62.3967742,3.73913043 Z" id="Shape"></path>
                    <path d="M65.1677419,0.841304348 C65.1677419,1.02826087 64.9677419,1.21521739 64.6677419,1.21521739 C64.3677419,1.21521739 64.2677419,1.02826087 64.2677419,0.841304348 C64.2677419,0.560869565 64.4677419,0.373913043 64.7677419,0.373913043 C64.9677419,0.373913043 65.1677419,0.560869565 65.1677419,0.841304348 Z M64.3677419,5.60869565 L64.3677419,1.86956522 L65.0677419,1.86956522 L65.0677419,5.60869565 L64.3677419,5.60869565 Z" id="Shape"></path>
                    <path d="M66.3258065,2.89782609 C66.3258065,2.52391304 66.3258065,2.24347826 66.3258065,1.86956522 L66.8870968,1.86956522 L66.8870968,2.52391304 L66.8870968,2.52391304 C67.0741935,2.15 67.5419355,1.86956522 68.1032258,1.86956522 C68.6645161,1.86956522 69.4129032,2.15 69.4129032,3.45869565 L69.4129032,5.60869565 L68.7580645,5.60869565 L68.7580645,3.45869565 C68.7580645,2.89782609 68.5709677,2.33695652 67.916129,2.33695652 C67.4483871,2.33695652 67.1677419,2.6173913 66.9806452,2.99130435 C66.9806452,3.08478261 66.9806452,3.17826087 66.9806452,3.27173913 L66.9806452,5.60869565 L66.3258065,5.60869565 L66.3258065,2.89782609 L66.3258065,2.89782609 Z" id="Path"></path>
                    <path d="M73.4354839,4.67391304 C73.4354839,4.95434783 73.4354839,5.32826087 73.5290323,5.60869565 L72.8741935,5.60869565 L72.7806452,5.14130435 L72.7806452,5.14130435 C72.5935484,5.42173913 72.2193548,5.70217391 71.6580645,5.70217391 C70.9096774,5.70217391 70.5354839,5.14130435 70.5354839,4.67391304 C70.5354839,3.73913043 71.3774194,3.27173913 72.7806452,3.27173913 L72.7806452,3.17826087 C72.7806452,2.89782609 72.6870968,2.33695652 71.9387097,2.33695652 C71.5645161,2.33695652 71.1903226,2.43043478 71.0032258,2.6173913 L70.816129,2.15 C71.0967742,1.96304348 71.5645161,1.77608696 72.0322581,1.77608696 C73.1548387,1.77608696 73.4354839,2.52391304 73.4354839,3.27173913 L73.4354839,4.67391304 L73.4354839,4.67391304 Z M72.7806452,3.73913043 C72.0322581,3.73913043 71.1903226,3.8326087 71.1903226,4.58043478 C71.1903226,5.04782609 71.4709677,5.23478261 71.8451613,5.23478261 C72.3129032,5.23478261 72.5935484,4.95434783 72.7806452,4.58043478 C72.7806452,4.48695652 72.7806452,4.39347826 72.7806452,4.39347826 L72.7806452,3.73913043 Z" id="Shape"></path>
                    <path d="M74.7451613,0.186956522 L75.4,0.186956522 L75.4,2.52391304 L75.4,2.52391304 C75.6806452,2.15 76.0548387,1.86956522 76.7096774,1.86956522 C77.6451613,1.86956522 78.3,2.6173913 78.3,3.73913043 C78.3,5.04782609 77.4580645,5.70217391 76.616129,5.70217391 C76.0548387,5.70217391 75.6806452,5.51521739 75.4,5.04782609 L75.4,5.04782609 L75.4,5.70217391 L74.8387097,5.70217391 C74.8387097,5.42173913 74.8387097,5.04782609 74.8387097,4.7673913 L74.8387097,0.186956522 L74.7451613,0.186956522 Z M75.4,4.11304348 C75.4,4.20652174 75.4,4.3 75.4,4.39347826 C75.4935484,4.86086957 75.9612903,5.14130435 76.4290323,5.14130435 C77.1774194,5.14130435 77.5516129,4.58043478 77.5516129,3.73913043 C77.5516129,2.99130435 77.1774194,2.33695652 76.4290323,2.33695652 C75.9612903,2.33695652 75.4935484,2.6173913 75.4,3.17826087 C75.4,3.27173913 75.4,3.36521739 75.4,3.45869565 L75.4,4.11304348 Z" id="Shape"></path>
                    <polygon id="Path" points="79.2354839 0.186956522 79.8903226 0.186956522 79.8903226 5.60869565 79.2354839 5.60869565"></polygon>
                    <path d="M81.6677419,3.8326087 C81.6677419,4.7673913 82.2290323,5.14130435 82.9774194,5.14130435 C83.4451613,5.14130435 83.7258065,5.04782609 84.0064516,4.95434783 L84.1,5.42173913 C83.8193548,5.51521739 83.4451613,5.70217391 82.883871,5.70217391 C81.7612903,5.70217391 81.0129032,4.95434783 81.0129032,3.8326087 C81.0129032,2.71086957 81.6677419,1.86956522 82.7903226,1.86956522 C84.0064516,1.86956522 84.2870968,2.89782609 84.2870968,3.64565217 C84.2870968,3.73913043 84.2870968,3.92608696 84.2870968,3.92608696 L81.6677419,3.92608696 L81.6677419,3.8326087 Z M83.6322581,3.36521739 C83.6322581,2.89782609 83.4451613,2.24347826 82.6967742,2.24347826 C82.0419355,2.24347826 81.6677419,2.89782609 81.6677419,3.36521739 L83.6322581,3.36521739 Z" id="Shape"></path>
                    <path d="M90.7419355,5.42173913 C90.4612903,5.51521739 89.9935484,5.70217391 89.3387097,5.70217391 C87.8419355,5.70217391 86.8129032,4.7673913 86.8129032,3.08478261 C86.8129032,1.49565217 87.9354839,0.373913043 89.5258065,0.373913043 C90.1806452,0.373913043 90.5548387,0.467391304 90.7419355,0.560869565 L90.5548387,1.12173913 C90.2741935,1.02826087 89.9,0.934782609 89.5258065,0.934782609 C88.3096774,0.934782609 87.4677419,1.6826087 87.4677419,3.08478261 C87.4677419,4.39347826 88.216129,5.14130435 89.4322581,5.14130435 C89.8064516,5.14130435 90.2741935,5.04782609 90.5548387,4.95434783 L90.7419355,5.42173913 Z" id="Path"></path>
                    <path d="M94.3903226,4.67391304 C94.3903226,4.95434783 94.3903226,5.32826087 94.483871,5.60869565 L93.8290323,5.60869565 L93.7354839,5.14130435 L93.7354839,5.14130435 C93.5483871,5.42173913 93.1741935,5.70217391 92.6129032,5.70217391 C91.8645161,5.70217391 91.4903226,5.14130435 91.4903226,4.67391304 C91.4903226,3.73913043 92.3322581,3.27173913 93.7354839,3.27173913 L93.7354839,3.17826087 C93.7354839,2.89782609 93.6419355,2.33695652 92.8935484,2.33695652 C92.5193548,2.33695652 92.1451613,2.43043478 91.9580645,2.6173913 L91.7709677,2.15 C92.0516129,1.96304348 92.5193548,1.77608696 92.9870968,1.77608696 C94.1096774,1.77608696 94.3903226,2.52391304 94.3903226,3.27173913 L94.3903226,4.67391304 L94.3903226,4.67391304 Z M93.7354839,3.73913043 C92.9870968,3.73913043 92.1451613,3.8326087 92.1451613,4.58043478 C92.1451613,5.04782609 92.4258065,5.23478261 92.8,5.23478261 C93.2677419,5.23478261 93.5483871,4.95434783 93.7354839,4.58043478 C93.7354839,4.48695652 93.7354839,4.39347826 93.7354839,4.39347826 L93.7354839,3.73913043 Z" id="Shape"></path>
                    <path d="M95.6064516,2.89782609 C95.6064516,2.52391304 95.6064516,2.24347826 95.6064516,1.86956522 L96.1677419,1.86956522 L96.1677419,2.43043478 L96.1677419,2.43043478 C96.3548387,2.05652174 96.7290323,1.77608696 97.2903226,1.77608696 C97.7580645,1.77608696 98.2258065,2.05652174 98.3193548,2.52391304 L98.3193548,2.52391304 C98.4129032,2.33695652 98.6,2.15 98.6935484,2.05652174 C98.8806452,1.86956522 99.1612903,1.77608696 99.5354839,1.77608696 C100.003226,1.77608696 100.751613,2.05652174 100.751613,3.36521739 L100.751613,5.60869565 L100.096774,5.60869565 L100.096774,3.45869565 C100.096774,2.71086957 99.816129,2.33695652 99.2548387,2.33695652 C98.8806452,2.33695652 98.6,2.6173913 98.4129032,2.99130435 C98.4129032,3.08478261 98.3193548,3.17826087 98.3193548,3.36521739 L98.3193548,5.60869565 L97.6645161,5.60869565 L97.6645161,3.36521739 C97.6645161,2.80434783 97.383871,2.33695652 96.916129,2.33695652 C96.5419355,2.33695652 96.1677419,2.71086957 96.0741935,2.99130435 C96.0741935,3.08478261 95.9806452,3.17826087 95.9806452,3.36521739 L95.9806452,5.60869565 L95.3258065,5.60869565 L95.3258065,2.89782609 L95.6064516,2.89782609 Z" id="Path"></path>
                    <path d="M102.248387,3.08478261 C102.248387,2.6173913 102.248387,2.24347826 102.248387,1.86956522 L102.809677,1.86956522 L102.809677,2.52391304 L102.809677,2.52391304 C103.090323,2.05652174 103.558065,1.77608696 104.119355,1.77608696 C105.054839,1.77608696 105.709677,2.52391304 105.709677,3.64565217 C105.709677,4.95434783 104.867742,5.60869565 104.025806,5.60869565 C103.558065,5.60869565 103.090323,5.42173913 102.903226,5.04782609 L102.903226,5.04782609 L102.903226,7.10434783 L102.248387,7.10434783 L102.248387,3.08478261 Z M102.903226,4.11304348 C102.903226,4.20652174 102.903226,4.3 102.903226,4.39347826 C102.996774,4.86086957 103.464516,5.14130435 103.932258,5.14130435 C104.680645,5.14130435 105.054839,4.58043478 105.054839,3.73913043 C105.054839,2.99130435 104.680645,2.33695652 103.932258,2.33695652 C103.464516,2.33695652 102.996774,2.71086957 102.903226,3.17826087 C102.903226,3.27173913 102.903226,3.36521739 102.903226,3.45869565 L102.903226,4.11304348 Z" id="Shape"></path>
                    <path d="M109.919355,4.58043478 C109.919355,4.95434783 109.919355,5.32826087 109.919355,5.60869565 L109.358065,5.60869565 L109.358065,5.04782609 L109.358065,5.04782609 C109.170968,5.32826087 108.796774,5.70217391 108.141935,5.70217391 C107.580645,5.70217391 106.832258,5.42173913 106.832258,4.11304348 L106.832258,1.86956522 L107.487097,1.86956522 L107.487097,3.92608696 C107.487097,4.67391304 107.674194,5.14130435 108.329032,5.14130435 C108.796774,5.14130435 109.077419,4.86086957 109.264516,4.48695652 C109.264516,4.39347826 109.358065,4.3 109.358065,4.11304348 L109.358065,1.86956522 L110.012903,1.86956522 L110.012903,4.58043478 L109.919355,4.58043478 Z" id="Path"></path>
                    <path d="M111.135484,4.95434783 C111.322581,5.04782609 111.696774,5.23478261 112.070968,5.23478261 C112.53871,5.23478261 112.819355,4.95434783 112.819355,4.67391304 C112.819355,4.39347826 112.632258,4.20652174 112.164516,4.01956522 C111.509677,3.73913043 111.135484,3.45869565 111.135484,2.99130435 C111.135484,2.43043478 111.603226,1.86956522 112.445161,1.86956522 C112.819355,1.86956522 113.193548,1.96304348 113.380645,2.05652174 L113.193548,2.52391304 C113.006452,2.43043478 112.819355,2.33695652 112.445161,2.33695652 C112.070968,2.33695652 111.790323,2.52391304 111.790323,2.80434783 C111.790323,3.08478261 111.977419,3.27173913 112.53871,3.45869565 C113.193548,3.73913043 113.474194,4.01956522 113.474194,4.58043478 C113.474194,5.23478261 113.006452,5.70217391 112.070968,5.70217391 C111.696774,5.70217391 111.322581,5.60869565 111.041935,5.42173913 L111.135484,4.95434783 Z" id="Path"></path>
                    <path d="M116.280645,5.60869565 L116.280645,0.467391304 L117.029032,0.467391304 L118.712903,3.08478261 C119.087097,3.64565217 119.367742,4.20652174 119.648387,4.7673913 L119.648387,4.7673913 C119.554839,4.11304348 119.554839,3.45869565 119.554839,2.6173913 L119.554839,0.467391304 L120.209677,0.467391304 L120.209677,5.60869565 L119.554839,5.60869565 L117.870968,2.99130435 C117.496774,2.43043478 117.122581,1.86956522 116.935484,1.30869565 L116.935484,1.30869565 C116.935484,1.96304348 117.029032,2.6173913 117.029032,3.45869565 L117.029032,5.60869565 L116.280645,5.60869565 Z" id="Path"></path>
                    <path d="M121.893548,3.8326087 C121.893548,4.7673913 122.454839,5.14130435 123.203226,5.14130435 C123.670968,5.14130435 123.951613,5.04782609 124.232258,4.95434783 L124.325806,5.42173913 C124.045161,5.51521739 123.670968,5.70217391 123.109677,5.70217391 C121.987097,5.70217391 121.23871,4.95434783 121.23871,3.8326087 C121.23871,2.71086957 121.893548,1.86956522 123.016129,1.86956522 C124.232258,1.86956522 124.512903,2.89782609 124.512903,3.64565217 C124.512903,3.73913043 124.512903,3.92608696 124.512903,3.92608696 L121.893548,3.92608696 L121.893548,3.8326087 Z M123.951613,3.36521739 C123.951613,2.89782609 123.764516,2.24347826 123.016129,2.24347826 C122.36129,2.24347826 122.080645,2.89782609 121.987097,3.36521739 L123.951613,3.36521739 Z" id="Shape"></path>
                    <path d="M126.383871,1.02826087 L126.383871,1.96304348 L127.319355,1.96304348 L127.319355,2.52391304 L126.383871,2.52391304 L126.383871,4.48695652 C126.383871,4.95434783 126.477419,5.23478261 126.851613,5.23478261 C127.03871,5.23478261 127.132258,5.23478261 127.225806,5.23478261 L127.225806,5.70217391 C127.132258,5.79565217 126.851613,5.79565217 126.664516,5.79565217 C126.383871,5.79565217 126.103226,5.70217391 125.916129,5.51521739 C125.729032,5.32826087 125.635484,4.95434783 125.635484,4.58043478 L125.635484,2.52391304 L125.074194,2.52391304 L125.074194,1.86956522 L125.635484,1.86956522 L125.635484,1.21521739 L126.383871,1.02826087 Z" id="Path"></path>
                    <path d="M128.629032,1.86956522 L129.096774,3.73913043 C129.190323,4.11304348 129.283871,4.58043478 129.377419,4.95434783 L129.377419,4.95434783 C129.470968,4.58043478 129.564516,4.20652174 129.658065,3.73913043 L130.312903,1.86956522 L130.874194,1.86956522 L131.435484,3.73913043 C131.529032,4.20652174 131.716129,4.58043478 131.809677,4.95434783 L131.809677,4.95434783 C131.903226,4.58043478 131.996774,4.20652174 132.090323,3.73913043 L132.651613,1.86956522 L133.306452,1.86956522 L132.090323,5.60869565 L131.435484,5.60869565 L130.874194,3.8326087 C130.780645,3.45869565 130.593548,3.08478261 130.5,2.6173913 L130.5,2.6173913 C130.406452,3.08478261 130.312903,3.45869565 130.125806,3.8326087 L129.564516,5.60869565 L129.096774,5.60869565 L127.974194,1.86956522 L128.629032,1.86956522 Z" id="Path"></path>
                    <path d="M137.516129,3.73913043 C137.516129,5.14130435 136.580645,5.70217391 135.645161,5.70217391 C134.616129,5.70217391 133.867742,4.95434783 133.867742,3.8326087 C133.867742,2.6173913 134.709677,1.86956522 135.73871,1.86956522 C136.86129,1.77608696 137.516129,2.6173913 137.516129,3.73913043 Z M134.616129,3.73913043 C134.616129,4.58043478 135.083871,5.14130435 135.73871,5.14130435 C136.393548,5.14130435 136.86129,4.58043478 136.86129,3.73913043 C136.86129,3.08478261 136.580645,2.33695652 135.73871,2.33695652 C134.896774,2.33695652 134.616129,3.08478261 134.616129,3.73913043 Z" id="Shape"></path>
                    <path d="M138.545161,3.08478261 C138.545161,2.6173913 138.545161,2.24347826 138.545161,1.96304348 L139.106452,1.96304348 L139.106452,2.71086957 L139.106452,2.71086957 C139.293548,2.24347826 139.667742,1.86956522 140.135484,1.86956522 C140.229032,1.86956522 140.229032,1.86956522 140.322581,1.86956522 L140.322581,2.52391304 C140.229032,2.52391304 140.229032,2.52391304 140.135484,2.52391304 C139.667742,2.52391304 139.293548,2.89782609 139.2,3.36521739 C139.2,3.45869565 139.2,3.55217391 139.2,3.64565217 L139.2,5.60869565 L138.545161,5.60869565 L138.545161,3.08478261 Z" id="Path"></path>
                    <path d="M142.006452,3.55217391 L142.006452,3.55217391 C142.1,3.45869565 142.287097,3.27173913 142.380645,3.08478261 L143.503226,1.77608696 L144.345161,1.77608696 L142.941935,3.27173913 L144.625806,5.42173913 L143.783871,5.42173913 L142.474194,3.64565217 L142.1,4.01956522 L142.1,5.60869565 L141.445161,5.60869565 L141.445161,0.186956522 L142.1,0.186956522 L142.1,3.55217391 L142.006452,3.55217391 Z" id="Path"></path>
                </g>
                <g transform="translate(0.935484, 0.000000)" id="Path">
                    <polygon points="8.41935484 32.9043478 0.748387097 32.9043478 0.748387097 0.280434783 8.41935484 0.280434783"></polygon>
                    <path d="M55.3806452,22.8086957 C55.3806452,25.5195652 54.5387097,27.8565217 52.9483871,29.8195652 C51.1709677,31.876087 48.9258065,32.9043478 46.2129032,32.9043478 L17.9612903,32.9043478 L17.9612903,25.2391304 L46.2129032,25.2391304 C47.2419355,25.2391304 47.8032258,24.3978261 47.8032258,22.8086957 C47.8032258,21.2195652 47.2419355,20.3782609 46.2129032,20.3782609 L25.6322581,20.3782609 C22.9193548,20.3782609 20.6741935,19.35 18.8967742,17.2934783 C17.2129032,15.423913 16.3709677,13.0869565 16.3709677,10.2826087 C16.3709677,7.57173913 17.2129032,5.14130435 18.9903226,3.17826087 C20.7677419,1.21521739 22.9193548,0.186956522 25.6322581,0.186956522 L53.883871,0.186956522 L53.883871,7.85217391 L25.6322581,7.85217391 C24.6032258,7.85217391 24.0419355,8.69347826 24.0419355,10.376087 C24.0419355,11.9652174 24.6032258,12.8065217 25.6322581,12.8065217 L46.2129032,12.8065217 C48.9258065,12.8065217 51.1709677,13.8347826 52.9483871,15.8913043 C54.6322581,17.7608696 55.3806452,20.0978261 55.3806452,22.8086957 Z"></path>
                    <path d="M99.3483871,32.9043478 L74.0903226,32.9043478 C71.0967742,32.9043478 68.5709677,31.876087 66.5129032,29.9130435 C64.4548387,27.95 63.4258065,25.5195652 63.4258065,22.5282609 L63.4258065,10.5630435 C63.4258065,7.57173913 64.4548387,5.14130435 66.5129032,3.17826087 C68.5709677,1.21521739 71.0967742,0.186956522 74.0903226,0.186956522 L99.3483871,0.186956522 L99.3483871,7.85217391 L74.0903226,7.85217391 C72.0322581,7.85217391 71.0032258,8.78695652 71.0032258,10.5630435 L71.0032258,22.5282609 C71.0032258,24.3043478 72.0322581,25.2391304 74.0903226,25.2391304 L99.3483871,25.2391304 L99.3483871,32.9043478 Z"></path>
                    <polygon points="142.193548 32.9043478 134.522581 32.9043478 114.877419 10.9369565 114.877419 32.9043478 107.206452 32.9043478 107.206452 0.280434783 114.877419 0.280434783 134.522581 22.1543478 134.522581 0.280434783 142.193548 0.280434783"></polygon>
                </g>
            </g>
            <g id="Group">
                <g id="Shape">
                    <path d="M41.3466667,48.1558442 C37.4266667,48.2493506 34.0666667,50.774026 32.9466667,53.9532468 C33.6933333,53.9532468 34.5333333,53.9532468 35.28,53.9532468 C36.3066667,51.9896104 38.4533333,50.587013 40.9733333,50.4935065 C44.4266667,50.4 47.04,53.0181818 46.76,56.0103896 C46.48,59.0025974 43.7733333,61.2467532 40.5066667,61.3402597 C38.1733333,61.4337662 36.12,60.3116883 35.1866667,58.5350649 C34.44,58.5350649 33.6933333,58.5350649 32.9466667,58.5350649 C34.0666667,61.4337662 37.1466667,63.2103896 40.6933333,63.0233766 C44.7066667,62.8363636 48.16,60.4051948 49.0933333,56.8519481 C55.16,56.3844156 60.6666667,55.7298701 64.7733333,54.7012987 C65.24,54.0467532 65.6133333,53.2987013 65.9866667,52.6441558 C61.7866667,53.6727273 55.9066667,54.4207792 49.28,54.7948052 C49.1866667,51.1480519 45.8266667,48.0623377 41.3466667,48.1558442 Z M30.9866667,41.1428571 C30.3333333,36.7480519 26.6,33.3818182 22.3066667,33.3818182 C18.48,33.3818182 15.4933333,36 14.56,39.4597403 C15.2133333,39.4597403 15.96,39.4597403 16.7066667,39.4597403 C17.5466667,37.3090909 19.6,35.812987 22.12,35.812987 C25.48,35.812987 28.3733333,38.7116883 28.4666667,42.2649351 C28.4666667,45.8181818 25.76,48.4363636 22.4,48.3428571 C19.9733333,48.2493506 17.92,46.7532468 16.8933333,44.6025974 C16.1466667,44.6025974 15.4933333,44.5090909 14.7466667,44.5090909 C15.8666667,47.9688312 18.9466667,50.4935065 22.68,50.6805195 C26.88,50.8675325 30.52,47.7818182 31.08,43.4805195 C46.48,43.574026 62.8133333,43.1064935 69.72,42.0779221 C69.8133333,41.4233766 69.9066667,40.7688312 70,40.0207792 C63.1866667,40.8623377 46.6666667,41.2363636 30.9866667,41.1428571 Z M25.8533333,1.96363636 C26.1333333,1.96363636 26.4133333,1.87012987 26.6933333,1.87012987 C26.9733333,1.87012987 27.2533333,1.87012987 27.5333333,1.87012987 C27.8133333,1.87012987 28.1866667,1.87012987 28.4666667,1.87012987 C29.4,1.58961039 29.96,1.30909091 30.24,1.12207792 C28.7466667,1.30909091 27.3466667,1.58961039 25.8533333,1.96363636 Z M24.8266667,3.45974026 C28.3733333,3.17922078 31.5466667,1.68311688 32.1066667,1.21558442 C34.8133333,1.12207792 37.52,1.21558442 40.2266667,1.30909091 C39.5733333,1.12207792 38.92,1.02857143 38.2666667,0.935064935 C36.3066667,0.935064935 34.2533333,0.935064935 32.2933333,0.935064935 C32.0133333,0.841558442 30.6133333,1.68311688 28.56,1.87012987 C27.6266667,2.15064935 26.32,2.43116883 25.0133333,2.52467532 C24.64,2.52467532 24.2666667,2.52467532 23.8933333,2.52467532 C23.24,2.71168831 22.5866667,2.99220779 21.9333333,3.27272727 C22.68,3.45974026 23.7066667,3.55324675 24.8266667,3.45974026 Z M33.32,3.74025974 C33.9733333,3.74025974 34.6266667,3.74025974 35.28,3.74025974 C36.12,2.80519481 37.8,2.43116883 39.76,2.43116883 C42.4666667,2.52467532 44.9866667,3.55324675 45.4533333,5.32987013 C45.92,7.10649351 43.68,8.88311688 40.5066667,8.78961039 C38.1733333,8.6961039 36.2133333,7.66753247 35.28,6.35844156 C34.6266667,6.35844156 33.88,6.35844156 33.2266667,6.35844156 C34.16,8.41558442 37.24,10.3792208 40.88,10.4727273 C44.9866667,10.6597403 47.88,8.41558442 47.7866667,6.07792208 C50.3066667,6.26493506 52.64,6.63896104 54.88,6.91948052 C54.04,6.35844156 53.2933333,5.89090909 52.4533333,5.32987013 C50.8666667,5.14285714 49.1866667,4.95584416 47.4133333,4.76883117 C46.2933333,2.80519481 43.12,1.87012987 39.76,1.68311688 C36.8666667,1.68311688 34.3466667,2.15064935 33.32,3.74025974 Z M41.2533333,19.6363636 C37.4266667,19.5428571 34.0666667,21.8805195 32.9466667,25.4337662 C33.7866667,25.4337662 34.5333333,25.4337662 35.3733333,25.4337662 C36.4,23.2831169 38.5466667,21.8805195 41.0666667,21.974026 C44.52,22.0675325 47.32,24.7792208 47.4133333,28.238961 C47.5066667,31.6987013 44.7066667,34.5974026 41.16,34.5974026 C38.5466667,34.5974026 36.3066667,33.0077922 35.28,30.8571429 C34.44,30.8571429 33.6933333,30.8571429 32.8533333,30.8571429 C33.9733333,34.5038961 37.4266667,37.1220779 41.44,37.1220779 C45.92,37.1220779 49.4666667,33.7558442 49.9333333,29.5480519 C58.4266667,29.7350649 65.7066667,30.1090909 69.72,30.6701299 C69.6266667,30.0155844 69.44,29.361039 69.3466667,28.612987 C65.3333333,27.8649351 58.1466667,27.3974026 49.9333333,27.2103896 C49.1866667,22.9090909 45.5466667,19.7298701 41.2533333,19.6363636 Z M22.4,21.1324675 C19.9733333,21.225974 18.1066667,19.9168831 17.4533333,18.1402597 C16.8,18.2337662 16.0533333,18.2337662 15.4,18.3272727 C16.0533333,21.225974 18.8533333,23.5636364 22.5866667,23.3766234 C26.88,23.2831169 30.6133333,19.9168831 31.2666667,16.2701299 C44.24,16.0831169 57.8666667,16.9246753 65.7066667,18.8883117 C65.3333333,18.1402597 64.8666667,17.4857143 64.4933333,16.8311688 C56.4666667,14.8675325 43.68,14.025974 31.36,14.3064935 C30.8933333,10.7532468 27.6266667,8.6961039 23.8,8.97662338 C20.44,9.25714286 17.36,11.2207792 15.96,14.025974 C16.6133333,13.9324675 17.2666667,13.838961 17.92,13.838961 C19.04,12.0623377 21,10.8467532 23.24,10.6597403 C26.32,10.4727273 28.7466667,12.3428571 28.6533333,15.3350649 C28.56,18.2337662 25.6666667,20.9454545 22.4,21.1324675 Z M40.1333333,69.0077922 C36.96,69.1012987 34.16,70.2233766 33.5066667,70.7844156 C34.0666667,70.7844156 34.6266667,70.7844156 35.1866667,70.7844156 C35.1866667,70.7844156 35.28,70.7844156 35.28,70.7844156 C35.28,70.7844156 35.3733333,70.7844156 35.3733333,70.6909091 C36.2133333,70.3168831 37.8933333,69.8493506 39.76,69.7558442 C41.3466667,69.6623377 42.6533333,69.9428571 43.3066667,70.2233766 C43.96,70.0363636 44.52,69.9428571 45.1733333,69.7558442 C44.24,69.2883117 42.4666667,68.9142857 40.1333333,69.0077922 Z M31.5466667,65.0805195 C30.8933333,62.4623377 27.3466667,59.6571429 23.3333333,59.4701299 C19.7866667,59.2831169 17.2666667,60.9662338 16.8933333,63.1168831 C17.5466667,63.2103896 18.2,63.3038961 18.8533333,63.3038961 C19.4133333,61.9948052 21.0933333,61.0597403 23.3333333,61.2467532 C26.4133333,61.4337662 29.2133333,63.6779221 29.4,65.6415584 C29.5866667,67.6987013 27.44,68.6337662 24.7333333,68.4467532 C22.7733333,68.2597403 20.8133333,67.5116883 19.6933333,66.2961039 C19.04,66.2025974 18.48,66.1090909 17.8266667,66.1090909 C18.2,66.6701299 18.76,67.0441558 19.32,67.5116883 C20.3466667,68.0727273 21.4666667,68.5402597 22.5866667,68.9142857 C23.4266667,69.1012987 24.36,69.2883117 25.2,69.3818182 C28.56,69.5688312 31.2666667,68.7272727 31.64,66.3896104 C39.76,66.5766234 47.9733333,66.1090909 54.9733333,64.987013 C55.72,64.425974 56.4666667,63.8649351 57.2133333,63.3038961 C49.84,64.7064935 40.5066667,65.2675325 31.5466667,65.0805195 Z"></path>
                    <path d="M22.4,46.7532468 C24.8266667,46.8467532 26.7866667,44.8831169 26.6933333,42.3584416 C26.6933333,39.8337662 24.64,37.7766234 22.2133333,37.7766234 C20.16,37.7766234 18.5733333,39.1792208 18.1066667,41.0493506 C10.2666667,40.8623377 3.64,40.5818182 0,40.2077922 C0.0933333333,40.8623377 0.186666667,41.5168831 0.28,42.2649351 C4.01333333,42.825974 10.5466667,43.2 18.2,43.4805195 C18.76,45.2571429 20.44,46.6597403 22.4,46.7532468 Z M41.2533333,52.1766234 C39.2,52.1766234 37.4266667,53.5792208 36.96,55.2623377 C24.2666667,55.2623377 11.3866667,54.4207792 3.82666667,52.6441558 C4.2,53.2987013 4.66666667,53.9532468 5.04,54.7012987 C12.6,56.5714286 24.92,57.412987 36.8666667,57.3194805 C37.3333333,58.9090909 39.0133333,59.9376623 40.88,59.9376623 C43.2133333,59.8441558 45.1733333,58.2545455 45.36,56.1038961 C45.5466667,53.8597403 43.68,52.0831169 41.2533333,52.1766234 Z M36.96,29.361039 C37.52,31.3246753 39.2933333,32.7272727 41.44,32.7272727 C43.96,32.7272727 45.92,30.6701299 45.92,28.238961 C45.8266667,25.8077922 43.8666667,23.7506494 41.3466667,23.7506494 C39.2933333,23.7506494 37.52,25.0597403 37.0533333,26.9298701 C22.4,26.8363636 7.28,27.3974026 0.653333333,28.612987 C0.466666667,29.2675325 0.373333333,29.9220779 0.28,30.6701299 C6.72,29.7350649 22.0266667,29.2675325 36.96,29.361039 Z M22.68,19.4493506 C25.0133333,19.3558442 27.0666667,17.3922078 27.16,15.3350649 C27.2533333,13.1844156 25.48,11.7818182 23.24,11.9688312 C21.3733333,12.0623377 19.6933333,13.2779221 19.04,14.8675325 C13.9066667,15.2415584 9.14666667,15.8961039 5.50666667,16.7376623 C5.04,17.3922078 4.66666667,18.1402597 4.29333333,18.7948052 C8.12,17.8597403 13.2533333,17.2051948 18.9466667,16.7376623 C19.2266667,18.3272727 20.72,19.5428571 22.68,19.4493506 Z M36.68,5.61038961 C37.1466667,6.63896104 38.7333333,7.57402597 40.6,7.66753247 C42.84,7.76103896 44.4266667,6.54545455 44.1466667,5.23636364 C43.8666667,3.92727273 42.0933333,3.08571429 40.04,2.99220779 C38.36,2.8987013 37.0533333,3.45974026 36.5866667,4.3012987 C30.0533333,4.3012987 23.3333333,4.67532468 17.4533333,5.51688312 C16.6133333,5.98441558 15.7733333,6.54545455 15.0266667,7.10649351 C21.4666667,5.98441558 29.12,5.51688312 36.68,5.61038961 Z M23.6133333,62.6493506 C21.7466667,62.5558442 20.44,63.3974026 20.3466667,64.5194805 C17.64,64.238961 15.12,63.8649351 12.7866667,63.4909091 C13.5333333,64.0519481 14.28,64.612987 15.0266667,65.174026 C16.8,65.4545455 18.76,65.7350649 20.72,65.9220779 C21.4666667,67.0441558 22.96,67.7922078 24.64,67.8857143 C26.6,68.0727273 28.0933333,67.2311688 28,65.7350649 C27.72,64.238961 25.76,62.7428571 23.6133333,62.6493506 Z M38.7333333,70.2233766 C37.52,70.2233766 36.3066667,70.5038961 35.3733333,70.7844156 C35.3733333,70.7844156 35.28,70.7844156 35.28,70.8779221 C35.28,70.8779221 35.1866667,70.8779221 35.1866667,70.8779221 C34.9066667,70.9714286 34.6266667,71.0649351 34.44,71.0649351 C32.8533333,71.0649351 31.2666667,71.0649351 29.68,70.9714286 C30.3333333,71.0649351 30.9866667,71.1584416 31.64,71.2519481 C32.2933333,71.2519481 33.04,71.2519481 33.6933333,71.2519481 C33.6933333,71.2519481 33.6933333,71.2519481 33.6933333,71.2519481 C33.88,71.2519481 33.9733333,71.2519481 34.16,71.2519481 C34.44,71.2519481 34.72,71.2519481 35.0933333,71.2519481 C35.1866667,71.2519481 35.28,71.2519481 35.3733333,71.2519481 C35.3733333,71.2519481 35.3733333,71.2519481 35.3733333,71.2519481 C35.7466667,71.2519481 36.12,71.2519481 36.4933333,71.2519481 C36.8666667,71.3454545 37.8933333,71.0649351 39.2,71.0649351 C39.2933333,71.0649351 39.48,71.0649351 39.5733333,71.0649351 C40.5066667,70.9714286 41.44,70.7844156 42.28,70.5974026 C41.8133333,70.5038961 41.16,70.3168831 40.32,70.3168831 C39.6666667,70.2233766 39.2,70.2233766 38.7333333,70.2233766 Z"></path>
                </g>
            </g>
        </g>
    </g>
</svg>
